<?xml version="1.0" encoding="utf-8"?>
<svg xmlns="http://www.w3.org/2000/svg" viewBox="0 0 30 30"><path d="M 15 2 A 2 2 0 0 0 13 4 A 2 2 0 0 0 14.058594 5.7636719 L 10.103516 13.179688 L 4.7226562 10.013672 A 2 2 0 0 0 5 9 A 2 2 0 0 0 3 7 A 2 2 0 0 0 1 9 A 2 2 0 0 0 3 11 A 2 2 0 0 0 3.1992188 10.988281 L 4 19 L 7 19 L 20 19 L 23 19 L 26 19 L 26.800781 10.990234 A 2 2 0 0 0 27 11 A 2 2 0 0 0 29 9 A 2 2 0 0 0 27 7 A 2 2 0 0 0 25 9 A 2 2 0 0 0 25.277344 10.013672 L 19.896484 13.179688 L 15.941406 5.7636719 A 2 2 0 0 0 17 4 A 2 2 0 0 0 15 2 z M 4 21 L 4 23 C 4 24.105 4.895 25 6 25 L 24 25 C 25.105 25 26 24.105 26 23 L 26 21 L 4 21 z"/></svg>
