<?xml version="1.0" encoding="utf-8"?>
<svg xmlns="http://www.w3.org/2000/svg" viewBox="0 0 30 30"><path d="M 8.5 5 C 5.9945747 5 3.87238 6.6986928 3.2148438 9 L 2 9 A 1.0001 1.0001 0 1 0 2 11 L 3.0253906 11 C 3.2802274 13.793358 5.6429468 16 8.5 16 C 11.525721 16 14 13.525721 14 10.5 C 14 10.395244 13.990227 10.292808 13.984375 10.189453 A 1.0001 1.0001 0 0 0 14 10 C 14 9.4349698 14.43497 9 15 9 C 15.56503 9 16 9.4349698 16 10 A 1.0001 1.0001 0 0 0 16.015625 10.189453 C 16.009773 10.292808 16 10.395244 16 10.5 C 16 13.525721 18.474279 16 21.5 16 C 24.357053 16 26.719773 13.793358 26.974609 11 L 28 11 A 1.0001 1.0001 0 1 0 28 9 L 26.785156 9 C 26.12762 6.6986928 24.005425 5 21.5 5 C 19.523071 5 17.78619 6.058561 16.816406 7.6347656 C 16.309393 7.2431899 15.683593 7 15 7 C 14.316407 7 13.690607 7.2431899 13.183594 7.6347656 C 12.21381 6.058561 10.476929 5 8.5 5 z M 8.5 7 C 10.444841 7 12 8.5551587 12 10.5 C 12 12.444841 10.444841 14 8.5 14 C 6.5551587 14 5 12.444841 5 10.5 C 5 8.5551587 6.5551587 7 8.5 7 z M 21.5 7 C 23.444841 7 25 8.5551587 25 10.5 C 25 12.444841 23.444841 14 21.5 14 C 19.555159 14 18 12.444841 18 10.5 C 18 8.5551587 19.555159 7 21.5 7 z M 13 18 C 9.972 18 10.058 22 7 22 C 3.608 22 4 19 4 19 C 4 19 3 20.096 3 21.5 C 3 23.901 5.5311875 25 8.9921875 25 C 11.962949 25 13.925632 24.360666 15 23.332031 C 16.074368 24.360666 18.037051 25 21.007812 25 C 24.468813 25 27 23.901 27 21.5 C 27 20.096 26 19 26 19 C 26 19 26.392 22 23 22 C 19.942 22 20.028 18 17 18 C 16.182089 18 15.507354 18.275446 15 18.716797 C 14.492646 18.275446 13.817911 18 13 18 z"/></svg>
