<?xml version="1.0" encoding="utf-8"?>
<svg xmlns="http://www.w3.org/2000/svg" viewBox="0 0 24 24">
    <path d="M 12 3 A 3.5 3.5 0 0 0 8.5 6.5 A 3.5 3.5 0 0 0 12 10 A 3.5 3.5 0 0 0 15.5 6.5 A 3.5 3.5 0 0 0 12 3 z M 4.5 6 A 2.5 2.5 0 0 0 2 8.5 A 2.5 2.5 0 0 0 4.5 11 A 2.5 2.5 0 0 0 7 8.5 A 2.5 2.5 0 0 0 4.5 6 z M 12 12 C 9.664 12 5 13.172 5 15.5 L 5 19 L 12.091797 19 C 12.57237 21.827306 15.041286 24 18 24 C 21.3 24 24 21.3 24 18 C 24 14.7 21.3 12 18 12 C 17.095098 12 16.238168 12.207572 15.466797 12.570312 C 14.236368 12.197012 12.933023 12 12 12 z M 3.8984375 13.052734 C 2.3174375 13.296734 0 14.389078 0 15.705078 L 0 19 L 3 19 L 3 15.5 C 3 14.539 3.3454375 13.732734 3.8984375 13.052734 z M 18 14 C 20.2 14 22 15.8 22 18 C 22 20.2 20.2 22 18 22 C 15.8 22 14 20.2 14 18 C 14 15.8 15.8 14 18 14 z M 18.900391 15.199219 L 17.199219 18.099609 L 19.400391 20.300781 L 20.300781 19.300781 L 18.800781 17.900391 L 20 15.800781 L 18.900391 15.199219 z"/>
</svg>
